<?xml version="1.0" standalone="no"?>
<!DOCTYPE svg PUBLIC "-//W3C//DTD SVG 20010904//EN"
 "http://www.w3.org/TR/2001/REC-SVG-20010904/DTD/svg10.dtd">
<svg version="1.0" xmlns="http://www.w3.org/2000/svg"
 width="749.000000pt" height="749.000000pt" viewBox="0 0 749.000000 749.000000"
 preserveAspectRatio="xMidYMid meet">

<g transform="translate(0.000000,749.000000) scale(0.100000,-0.100000)"
fill="#000000" stroke="none">
<path d="M0 3745 l0 -3745 3745 0 3745 0 0 3745 0 3745 -3745 0 -3745 0 0
-3745z m7370 0 l0 -3625 -3625 0 -3625 0 0 3625 0 3625 3625 0 3625 0 0 -3625z"/>
<path d="M5460 6543 c-58 -1 -294 -7 -525 -13 -231 -6 -719 -17 -1085 -25
-1088 -24 -1903 -44 -2097 -51 l-181 -6 -319 -292 c-630 -574 -733 -671 -733
-684 0 -8 30 -110 66 -226 144 -461 206 -683 244 -881 11 -60 27 -141 35 -180
17 -83 112 -626 189 -1085 75 -442 112 -653 141 -794 14 -65 25 -120 25 -121
0 -8 286 -161 968 -519 l413 -217 282 60 c155 33 325 70 377 81 52 12 136 29
185 40 50 10 272 57 495 105 223 48 455 97 515 110 221 47 1291 276 1330 285
22 5 114 26 205 45 395 86 486 108 501 122 20 17 43 95 109 368 94 386 131
536 276 1125 80 322 143 596 142 610 -4 33 -87 79 -483 266 -1028 486 -1195
569 -1195 590 0 9 145 111 358 250 607 400 762 507 762 525 0 17 -169 187
-284 285 -59 52 -155 125 -211 164 l-104 70 -148 -2 c-81 -1 -195 -3 -253 -5z
m429 -64 c77 -44 188 -130 313 -243 119 -107 170 -164 166 -186 -3 -16 -60
-33 -150 -44 l-56 -7 -134 122 c-147 135 -279 247 -363 309 -30 22 -55 45 -55
50 0 11 90 27 164 29 49 1 69 -4 115 -30z m-386 -27 c49 -31 47 -48 -5 -56
-63 -8 -748 -25 -1533 -36 -379 -6 -892 -15 -1139 -21 -247 -6 -464 -8 -482
-5 -42 8 -60 29 -39 46 20 17 482 36 1680 71 209 6 499 14 645 19 146 4 393 7
550 6 280 -1 286 -1 323 -24z m-3431 -164 c94 -151 176 -301 239 -434 47 -99
99 -228 99 -245 0 -16 -39 -29 -137 -43 -170 -25 -257 -30 -270 -15 -6 8 -46
97 -88 199 -95 228 -174 394 -249 524 -31 55 -55 105 -52 112 6 15 58 19 251
22 l131 2 76 -122z m3581 43 c30 -12 57 -38 57 -56 0 -8 -14 -16 -32 -19 -42
-7 -382 -22 -898 -41 -223 -8 -526 -19 -675 -25 -835 -31 -1167 -41 -1410 -43
-242 -2 -270 0 -273 14 -2 12 7 18 30 23 45 8 391 33 563 41 77 3 214 10 305
16 91 5 309 16 485 24 176 8 406 19 510 25 105 5 336 16 515 25 179 8 348 17
375 18 124 8 426 6 448 -2z m201 -160 c50 -47 38 -58 -76 -65 -57 -4 -193 -13
-303 -21 -255 -19 -620 -43 -755 -50 -58 -4 -166 -10 -240 -16 -143 -10 -467
-29 -890 -54 -140 -8 -322 -19 -405 -25 -530 -35 -692 -33 -642 8 11 10 318
38 662 62 83 5 170 12 195 15 25 3 140 12 255 20 509 38 743 55 925 70 107 8
285 22 395 30 172 13 487 37 635 49 25 2 84 3 132 2 77 -1 89 -4 112 -25z
m153 -147 c34 -25 41 -50 16 -58 -20 -6 -260 -31 -388 -41 -44 -3 -154 -12
-245 -20 -344 -29 -327 -29 -346 1 -13 19 -15 30 -7 43 12 19 85 28 733 92
126 12 205 6 237 -17z m-1100 -90 c7 -19 -10 -106 -43 -214 l-26 -85 63 -110
c34 -61 80 -147 102 -192 l39 -82 -17 -53 c-40 -122 -159 -328 -189 -328 -21
0 -224 150 -305 227 l-73 68 11 167 c6 92 14 187 17 211 l6 43 -44 17 c-24 10
-62 34 -85 55 -22 20 -59 52 -83 71 -46 37 -100 106 -100 128 0 7 10 17 23 22
37 14 510 64 660 70 26 1 40 -4 44 -15z m-883 -93 c33 -36 -10 -49 -210 -66
-736 -63 -1117 -90 -1138 -82 -30 12 -16 26 37 36 76 15 603 75 927 105 91 9
179 17 195 19 17 2 62 5 101 6 58 1 74 -2 88 -18z m1994 -13 c-5 -18 -380
-264 -430 -284 -45 -16 -8 21 98 101 64 47 114 89 111 91 -2 3 -128 -9 -278
-26 -360 -41 -477 -50 -506 -39 -30 11 -31 47 0 58 24 9 391 55 797 100 123
14 212 13 208 -1z m-1770 -212 c24 -23 34 -38 27 -45 -5 -5 -89 -19 -185 -31
-210 -25 -360 -47 -366 -53 -3 -2 3 -28 13 -58 19 -56 33 -66 116 -83 49 -11
34 -41 -33 -65 -56 -21 -60 -24 -70 -64 -28 -114 -44 -121 -75 -35 -11 32 -25
62 -31 68 -6 6 -38 19 -70 29 -34 10 -59 23 -59 31 0 7 25 21 55 32 66 22 86
41 95 90 6 31 4 39 -11 45 -33 12 -547 -49 -570 -68 -12 -10 -7 -29 73 -289
19 -63 38 -118 41 -122 4 -4 81 -25 172 -48 246 -61 240 -59 240 -76 0 -19
-87 -59 -235 -108 -128 -42 -169 -64 -188 -103 -8 -15 -27 -96 -41 -179 -33
-183 -48 -238 -68 -242 -19 -4 -34 36 -93 248 -26 91 -53 175 -61 187 -16 25
-52 37 -274 92 -207 51 -204 56 65 151 131 46 185 71 204 93 13 17 57 228 67
331 l7 68 -39 -6 c-21 -3 -102 -13 -179 -21 -200 -23 -631 -83 -689 -97 -33
-7 -199 -97 -499 -269 -247 -143 -453 -259 -458 -259 -37 0 10 36 526 400
l360 255 115 12 c63 7 201 22 305 33 105 11 249 27 320 34 72 8 218 24 325 36
107 12 386 43 620 70 234 26 444 48 468 49 35 1 49 -5 80 -33z m-173 -823 c60
-168 56 -164 149 -177 51 -8 96 -25 96 -36 0 -15 -38 -38 -100 -60 -36 -13
-73 -31 -83 -40 -11 -10 -27 -54 -38 -106 -11 -48 -22 -90 -24 -92 -15 -16
-38 19 -61 93 -31 100 -48 117 -132 134 -32 6 -67 18 -78 26 -17 12 -17 15 -4
28 8 7 48 26 88 41 41 16 79 38 87 50 8 12 21 54 30 95 8 40 18 77 21 82 13
22 34 5 49 -38z m2899 -424 c-1 -13 -494 -1982 -510 -2037 -7 -25 -68 -46
-166 -58 -75 -8 -77 10 -5 31 30 9 62 21 71 28 15 11 162 577 295 1137 13 52
47 194 76 315 78 320 103 425 110 468 l7 38 -63 -6 c-35 -3 -179 -14 -319 -25
-140 -11 -300 -25 -355 -30 -55 -6 -188 -17 -295 -25 -107 -9 -209 -18 -227
-21 -51 -10 -73 2 -73 40 0 19 6 38 13 44 6 5 104 17 217 26 225 18 382 32
805 70 343 31 364 32 395 25 14 -3 24 -12 24 -20z m-1620 -187 c2 -4 -4 -205
-14 -447 -10 -242 -21 -530 -25 -640 -15 -448 -43 -977 -52 -986 -17 -17 -481
-114 -600 -126 -60 -6 -63 -5 -72 19 -15 40 -50 368 -87 808 -8 102 -21 259
-29 350 -7 91 -21 255 -30 365 -9 110 -25 288 -35 395 -14 148 -15 198 -7 207
7 7 90 16 212 23 110 7 288 18 395 25 240 15 337 17 344 7z m1177 -2 c41 -23
16 -118 -36 -132 -36 -10 -288 -31 -680 -58 -272 -19 -291 -19 -302 -3 -17 23
-16 88 1 106 9 9 60 18 148 26 73 7 207 19 298 27 91 9 228 21 305 28 179 17
242 19 266 6z m-2492 -94 c17 -21 -10 -44 -62 -51 -67 -9 -255 -28 -652 -65
-428 -40 -730 -71 -764 -77 l-33 -6 6 -61 c3 -33 13 -158 21 -276 17 -244 45
-609 75 -975 46 -558 51 -625 63 -750 l12 -130 69 2 c66 3 351 39 934 118 254
35 344 42 327 27 -11 -10 -72 -24 -385 -87 -451 -92 -995 -195 -1028 -195 -27
0 -32 31 -77 515 -8 83 -23 249 -35 370 -26 274 -46 489 -65 715 -8 96 -22
247 -30 335 -32 351 -38 446 -28 456 11 11 98 22 398 49 121 11 292 27 380 35
88 8 268 24 400 35 132 11 249 22 260 24 11 2 61 4 111 5 67 1 95 -3 103 -13z
m21 -145 c6 -13 7 -28 1 -44 -12 -30 63 -23 -846 -82 -295 -20 -428 -17 -433
7 -6 30 81 44 543 88 121 11 281 27 355 34 74 8 188 14 252 15 106 1 118 -1
128 -18z m2442 -50 c-1 -35 -6 -69 -12 -76 -6 -7 -78 -16 -187 -24 -98 -6
-275 -18 -393 -27 -417 -29 -411 -28 -421 -13 -13 21 -11 95 4 107 6 6 161 24
342 41 182 17 395 38 475 45 209 20 196 24 192 -53z m-2414 -163 c16 -16 15
-53 0 -66 -20 -16 -118 -30 -288 -42 -358 -25 -753 -51 -865 -56 -106 -6 -122
-5 -135 10 -10 13 -11 22 -3 34 8 13 38 20 129 29 177 18 526 52 719 69 94 8
202 19 240 23 109 13 190 12 203 -1z m2363 -8 c32 -18 19 -130 -18 -144 -29
-11 -647 -57 -798 -59 l-150 -2 -3 45 c-5 77 -6 77 253 100 127 11 271 24 320
30 50 5 151 15 225 21 74 6 137 13 139 15 6 6 10 5 32 -6z m-2336 -244 c21
-31 10 -54 -28 -61 -71 -11 -642 -53 -1037 -76 -190 -11 -240 -6 -240 25 0 28
32 37 191 51 270 24 625 55 774 69 77 8 182 14 232 15 87 1 93 0 108 -23z
m2312 -2 c8 -20 -15 -122 -29 -130 -12 -8 -206 -25 -553 -49 -121 -9 -251 -20
-290 -24 -44 -5 -75 -4 -82 2 -15 11 -17 95 -4 116 9 14 146 30 686 79 270 25
264 25 272 6z m-2282 -249 c0 -39 0 -40 -45 -47 -25 -4 -189 -16 -365 -28
-176 -11 -423 -27 -550 -35 -363 -24 -349 -24 -353 2 -4 30 21 41 135 58 99
14 147 19 548 55 121 11 256 24 300 29 44 5 136 8 205 7 l125 -1 0 -40z m2245
-5 c0 -10 -5 -42 -11 -69 -13 -60 11 -55 -329 -76 -129 -8 -311 -20 -403 -26
-189 -12 -197 -10 -197 50 0 74 -3 73 405 110 291 27 292 27 423 29 105 2 112
1 112 -18z m-2225 -186 c23 -24 15 -66 -15 -80 -14 -7 -142 -19 -285 -28 -143
-10 -361 -24 -485 -31 -423 -28 -514 -30 -528 -13 -16 20 -5 47 22 53 11 2 71
9 131 15 61 5 225 20 365 34 140 14 314 30 385 36 72 7 166 16 210 20 140 13
182 11 200 -6z m2163 -46 c16 -16 15 -80 -1 -103 -17 -22 -100 -37 -407 -70
-338 -36 -452 -41 -469 -21 -14 17 -8 101 8 111 13 8 284 42 671 84 115 13
185 12 198 -1z m-35 -292 c-1 -35 -8 -65 -16 -74 -18 -17 -113 -31 -642 -92
-228 -26 -205 -31 -205 39 0 35 5 62 13 68 12 9 59 17 437 69 102 14 223 31
270 39 47 7 99 13 115 12 l30 -2 -2 -59z m-2089 35 c28 -31 13 -58 -42 -70
-43 -10 -306 -35 -642 -61 -74 -5 -151 -12 -170 -15 -19 -3 -118 -12 -220 -20
-102 -8 -196 -18 -210 -20 -37 -8 -65 16 -57 47 8 31 6 30 252 58 99 11 241
27 315 36 449 52 546 62 646 63 98 1 113 -1 128 -18z m2044 -286 c-3 -36 -11
-71 -17 -79 -6 -7 -42 -16 -79 -20 -37 -4 -114 -13 -172 -21 -58 -8 -177 -24
-265 -35 -88 -12 -186 -26 -217 -32 -78 -14 -91 -4 -82 66 4 28 10 55 14 60 8
8 90 22 380 66 139 20 307 45 360 53 14 3 38 5 54 6 l29 1 -5 -65z m-2017 15
c21 -12 27 -74 9 -85 -6 -4 -91 -15 -188 -26 -97 -10 -278 -30 -402 -44 -441
-49 -496 -55 -609 -64 -118 -10 -161 -3 -161 23 0 9 9 20 19 26 33 17 1035
156 1294 178 10 1 27 -3 38 -8z m1964 -190 c3 -5 -3 -10 -15 -10 -12 0 -18 5
-15 10 3 6 10 10 15 10 5 0 12 -4 15 -10z m-1932 -75 c19 -18 32 -74 21 -85
-10 -9 -152 -30 -609 -90 -170 -22 -377 -49 -460 -60 -246 -33 -288 -35 -304
-16 -33 39 -12 46 394 116 149 25 535 89 810 133 119 20 131 20 148 2z"/>
<path d="M5850 6396 c0 -19 27 -46 46 -46 12 0 10 7 -8 29 -25 33 -38 38 -38
17z"/>
<path d="M6130 6140 c0 -28 16 -50 37 -50 19 0 16 11 -12 45 l-25 30 0 -25z"/>
<path d="M1822 6269 c3 -23 33 -48 43 -37 8 8 -24 58 -37 58 -5 0 -8 -10 -6
-21z"/>
<path d="M2030 5934 c0 -3 5 -14 10 -25 16 -28 30 -23 17 6 -11 22 -27 34 -27
19z"/>
<path d="M4760 5370 c0 -6 9 -23 20 -38 24 -34 39 -100 40 -175 0 -54 -2 -59
-30 -75 -34 -19 -37 -27 -15 -36 22 -8 62 10 74 33 14 25 14 195 1 240 -5 18
-17 39 -27 47 -21 16 -63 18 -63 4z"/>
<path d="M4587 4005 c-4 -8 -4 -36 -2 -62 3 -26 14 -156 25 -288 24 -287 40
-437 47 -448 10 -17 301 -227 315 -227 11 0 101 180 94 188 -4 3 -20 -5 -37
-17 -17 -12 -37 -20 -44 -17 -22 8 -209 128 -216 138 -6 9 -19 144 -45 458 -7
96 -17 201 -20 233 l-7 57 -52 0 c-37 0 -55 -4 -58 -15z"/>
<path d="M1455 940 c-14 -27 -21 -50 -16 -50 9 0 121 89 121 96 0 2 -18 4 -40
4 -38 0 -41 -3 -65 -50z"/>
<path d="M5335 940 c-14 -27 -21 -50 -16 -50 9 0 121 89 121 96 0 2 -18 4 -40
4 -38 0 -41 -3 -65 -50z"/>
<path d="M271 783 l0 -68 19 42 c22 50 43 62 107 66 l48 2 3 -215 c1 -118 0
-225 -3 -237 -3 -13 -16 -25 -30 -29 -54 -14 -20 -24 80 -24 63 0 105 4 105
10 0 6 -8 10 -18 10 -39 0 -42 15 -42 258 l0 234 48 -7 c60 -9 90 -28 108 -71
8 -19 16 -34 19 -34 3 0 5 29 5 65 l0 65 -225 0 -225 0 1 -67z"/>
<path d="M750 844 c0 -5 10 -14 23 -19 22 -10 22 -11 22 -240 0 -229 0 -230
-22 -240 -43 -18 -23 -25 72 -25 95 0 115 7 73 25 -21 9 -23 17 -26 113 l-3
102 45 0 44 0 62 -120 62 -120 59 0 c32 0 59 2 59 3 0 2 -14 19 -31 38 -17 19
-53 76 -80 126 l-49 93 28 14 c75 39 101 122 56 183 -39 54 -84 67 -246 71
-83 3 -148 1 -148 -4z m271 -39 c65 -34 76 -136 20 -186 -29 -27 -118 -48
-141 -34 -12 7 -14 227 -2 239 10 11 87 -1 123 -19z"/>
<path d="M1240 840 c0 -5 6 -10 14 -10 8 0 22 -7 30 -16 14 -13 16 -49 16
-233 0 -225 -3 -241 -42 -241 -10 0 -18 -4 -18 -10 0 -6 75 -10 205 -10 l205
0 -1 78 c-1 74 -1 76 -12 39 -24 -76 -64 -97 -189 -97 l-58 0 0 120 0 121 67
-3 c67 -3 68 -4 85 -38 l17 -35 0 90 c-1 86 -1 89 -15 58 -18 -41 -41 -53
-103 -53 l-51 0 0 116 0 117 81 -6 c94 -8 122 -22 140 -72 19 -53 29 -43 29
30 l0 65 -200 0 c-127 0 -200 -4 -200 -10z"/>
<path d="M1805 832 c-60 -28 -78 -54 -83 -118 -4 -54 -4 -56 39 -97 30 -28 66
-50 111 -65 106 -37 145 -88 118 -153 -18 -41 -62 -62 -120 -57 -60 6 -102 36
-128 90 l-21 43 -1 -61 c0 -57 2 -62 28 -74 41 -19 155 -25 207 -10 30 8 57
26 80 51 29 33 35 46 35 85 0 83 -37 120 -173 174 -63 25 -107 68 -107 105 0
13 11 37 24 52 22 25 31 28 84 28 69 0 103 -22 124 -82 18 -49 28 -40 28 22 0
51 -2 56 -27 67 -16 6 -62 13 -103 15 -58 3 -84 -1 -115 -15z"/>
<path d="M2301 833 c-126 -46 -193 -205 -145 -345 58 -172 317 -226 449 -93
126 125 91 345 -68 427 -56 28 -174 34 -236 11z m180 -25 c21 -14 45 -46 64
-83 27 -54 30 -70 30 -150 -1 -76 -5 -99 -25 -140 -31 -62 -78 -95 -135 -95
-60 0 -104 33 -140 105 -27 54 -30 70 -30 150 1 76 5 99 25 140 45 91 136 122
211 73z"/>
<path d="M2720 844 c0 -5 10 -14 23 -19 22 -10 22 -11 22 -240 0 -229 0 -230
-22 -240 -43 -18 -23 -25 72 -25 95 0 115 7 73 25 -21 9 -23 17 -26 113 l-3
102 45 0 44 0 62 -120 62 -120 59 0 c32 0 59 2 59 3 0 2 -14 19 -31 38 -17 19
-53 76 -80 126 l-49 93 28 14 c75 39 101 122 56 183 -39 54 -84 67 -246 71
-83 3 -148 1 -148 -4z m271 -39 c65 -34 76 -136 20 -186 -29 -27 -118 -48
-141 -34 -12 7 -14 227 -2 239 10 11 87 -1 123 -19z"/>
<path d="M3370 841 c0 -6 6 -11 14 -11 8 0 22 -7 30 -16 14 -13 16 -48 16
-229 0 -181 -2 -216 -16 -229 -8 -9 -22 -16 -30 -16 -8 0 -14 -5 -14 -11 0
-19 284 -5 345 17 64 23 146 103 163 160 17 60 15 142 -7 190 -24 53 -93 111
-156 130 -63 20 -345 33 -345 15z m301 -42 c50 -25 86 -70 104 -131 19 -65 19
-101 0 -166 -28 -94 -91 -144 -198 -157 l-57 -7 0 247 0 247 57 -7 c32 -4 74
-15 94 -26z"/>
<path d="M3920 841 c0 -5 11 -12 24 -15 l24 -6 4 -182 c4 -195 9 -217 60 -265
76 -71 245 -69 310 3 40 46 48 87 48 258 0 136 3 167 16 180 8 9 22 16 30 16
8 0 14 5 14 10 0 6 -30 10 -70 10 -69 0 -93 -12 -46 -24 13 -3 26 -16 30 -28
10 -38 7 -290 -4 -330 -32 -113 -158 -153 -245 -77 -46 41 -57 98 -53 279 3
139 4 145 26 155 42 18 22 25 -73 25 -52 0 -95 -4 -95 -9z"/>
<path d="M4610 842 c0 -5 11 -14 24 -20 14 -6 55 -60 100 -134 l76 -123 0
-100 c0 -104 -7 -125 -42 -125 -10 0 -18 -4 -18 -10 0 -6 42 -10 105 -10 63 0
105 4 105 10 0 6 -6 10 -14 10 -36 0 -46 29 -46 128 l0 97 80 123 c48 74 90
127 105 134 42 19 28 28 -45 28 -67 0 -93 -12 -50 -23 11 -3 20 -14 20 -24 0
-21 -103 -206 -116 -210 -12 -3 -124 188 -124 211 0 10 9 20 20 23 48 13 12
23 -80 23 -55 0 -100 -4 -100 -8z"/>
<path d="M5120 840 c0 -5 6 -10 14 -10 8 0 22 -7 30 -16 14 -13 16 -49 16
-233 0 -225 -3 -241 -42 -241 -10 0 -18 -4 -18 -10 0 -6 75 -10 205 -10 l205
0 -1 78 c-1 74 -1 76 -12 39 -24 -76 -64 -97 -189 -97 l-58 0 0 120 0 121 67
-3 c67 -3 68 -4 85 -38 l17 -35 0 90 c-1 86 -1 89 -15 58 -18 -41 -41 -53
-103 -53 l-51 0 0 116 0 117 80 -6 c93 -6 123 -21 141 -72 19 -53 29 -43 29
30 l0 65 -200 0 c-127 0 -200 -4 -200 -10z"/>
<path d="M5590 842 c0 -4 10 -12 23 -17 22 -10 22 -10 19 -225 -4 -221 -11
-260 -47 -260 -8 0 -15 -4 -15 -10 0 -6 30 -10 70 -10 40 0 70 4 70 10 0 6 -6
10 -14 10 -33 0 -36 25 -34 239 l3 212 90 -236 c78 -204 92 -235 109 -233 16
2 36 47 103 227 45 123 84 225 86 228 3 2 8 -88 12 -201 8 -212 4 -236 -31
-236 -8 0 -14 -4 -14 -10 0 -6 38 -10 95 -10 95 0 115 7 73 25 -22 9 -23 18
-31 155 -4 80 -6 183 -5 230 3 77 5 86 26 95 41 18 23 26 -54 23 l-77 -3 -69
-205 c-38 -113 -73 -208 -76 -212 -4 -4 -43 90 -87 208 l-80 214 -72 0 c-40 0
-73 -3 -73 -8z"/>
<path d="M6250 840 c0 -5 6 -10 14 -10 8 0 22 -7 30 -16 14 -13 16 -49 16
-233 0 -225 -3 -241 -42 -241 -10 0 -18 -4 -18 -10 0 -6 75 -10 205 -10 l205
0 -1 78 c-1 74 -1 76 -12 39 -24 -76 -64 -97 -189 -97 l-58 0 0 120 0 121 67
-3 c67 -3 68 -4 85 -38 l17 -35 0 90 c-1 86 -1 89 -15 58 -18 -41 -41 -53
-103 -53 l-51 0 0 116 0 117 80 -6 c93 -6 123 -21 141 -72 19 -53 29 -43 29
30 l0 65 -200 0 c-127 0 -200 -4 -200 -10z"/>
<path d="M6700 840 c0 -5 6 -10 14 -10 8 0 22 -7 30 -16 24 -23 24 -419 0
-452 -8 -12 -22 -22 -30 -22 -8 0 -14 -4 -14 -10 0 -6 30 -10 70 -10 69 0 93
12 45 24 -33 8 -36 34 -33 256 l3 184 156 -229 c152 -225 156 -230 192 -233
l37 -3 0 233 c0 195 3 237 16 256 8 12 22 22 30 22 8 0 14 5 14 10 0 6 -30 10
-70 10 -69 0 -93 -12 -45 -24 33 -8 37 -35 33 -240 l-3 -169 -146 214 -145
214 -77 3 c-49 2 -77 -1 -77 -8z"/>
</g>
</svg>
