<?xml version="1.0" standalone="no"?>
<!DOCTYPE svg PUBLIC "-//W3C//DTD SVG 20010904//EN"
 "http://www.w3.org/TR/2001/REC-SVG-20010904/DTD/svg10.dtd">
<svg version="1.0" xmlns="http://www.w3.org/2000/svg"
 width="773.000000pt" height="150.000000pt" viewBox="0 0 773.000000 150.000000"
 preserveAspectRatio="xMidYMid meet">

<g transform="translate(0.000000,150.000000) scale(0.100000,-0.100000)"
fill="#000000" stroke="none">
<path d="M120 750 l0 -630 3745 0 3745 0 0 630 0 630 -3745 0 -3745 0 0 -630z
m1540 416 c0 -7 -112 -96 -121 -96 -5 0 2 23 16 50 24 47 27 50 65 50 22 0 40
-2 40 -4z m3880 0 c0 -7 -112 -96 -121 -96 -5 0 2 23 16 50 24 47 27 50 65 50
22 0 40 -2 40 -4z m-4720 -201 c0 -36 -2 -65 -5 -65 -3 0 -11 15 -19 34 -18
43 -48 62 -108 71 l-48 7 0 -234 c0 -243 3 -258 42 -258 10 0 18 -4 18 -10 0
-6 -42 -10 -105 -10 -100 0 -134 10 -80 24 14 4 27 16 30 29 3 12 4 119 3 237
l-3 215 -48 -2 c-64 -4 -85 -16 -107 -66 l-19 -42 0 68 -1 67 225 0 225 0 0
-65z m364 40 c108 -54 109 -176 4 -231 l-28 -14 49 -93 c27 -50 63 -107 80
-126 17 -19 31 -36 31 -38 0 -1 -27 -3 -59 -3 l-59 0 -62 120 -62 120 -44 0
-45 0 3 -102 c3 -96 5 -104 26 -113 42 -18 22 -25 -73 -25 -95 0 -115 7 -72
25 22 10 22 11 22 240 0 229 0 230 -22 240 -49 21 -17 27 125 23 120 -3 154
-8 186 -23z m556 -40 c0 -73 -10 -83 -29 -30 -18 51 -48 66 -141 72 l-80 6 0
-117 0 -116 51 0 c62 0 85 12 103 53 14 31 14 28 15 -58 l0 -90 -17 35 c-17
34 -18 35 -85 38 l-67 3 0 -121 0 -120 58 0 c125 0 165 21 189 97 11 37 11 35
12 -39 l1 -78 -205 0 c-130 0 -205 4 -205 10 0 6 8 10 18 10 39 0 42 16 42
241 0 184 -2 220 -16 233 -8 9 -22 16 -30 16 -8 0 -14 5 -14 10 0 6 73 10 200
10 l200 0 0 -65z m383 47 c25 -11 27 -16 27 -67 0 -62 -10 -71 -28 -22 -21 60
-55 82 -124 82 -53 0 -62 -3 -84 -28 -13 -15 -24 -39 -24 -52 0 -37 44 -80
107 -105 136 -54 173 -91 173 -174 0 -39 -6 -52 -35 -85 -23 -25 -50 -43 -80
-51 -52 -15 -166 -9 -207 10 -26 12 -28 17 -28 74 l1 61 21 -43 c26 -54 68
-84 128 -90 58 -5 102 16 120 57 27 65 -12 116 -118 153 -45 15 -81 37 -111
65 -43 41 -43 43 -39 97 5 64 23 90 83 118 31 14 57 18 115 15 41 -2 87 -9
103 -15z m514 -10 c159 -82 194 -302 68 -427 -132 -133 -391 -79 -449 93 -48
140 19 299 145 345 62 23 180 17 236 -11z m517 3 c108 -54 109 -176 4 -231
l-28 -14 49 -93 c27 -50 63 -107 80 -126 17 -19 31 -36 31 -38 0 -1 -27 -3
-59 -3 l-59 0 -62 120 -62 120 -44 0 -45 0 3 -102 c3 -96 5 -104 26 -113 42
-18 22 -25 -73 -25 -95 0 -115 7 -72 25 22 10 22 11 22 240 0 229 0 230 -22
240 -49 21 -17 27 125 23 120 -3 154 -8 186 -23z m661 1 c63 -19 132 -77 156
-130 22 -48 24 -130 7 -190 -17 -57 -99 -137 -163 -160 -61 -22 -345 -36 -345
-17 0 6 6 11 14 11 8 0 22 7 30 16 14 13 16 48 16 229 0 181 -2 216 -16 229
-8 9 -22 16 -30 16 -8 0 -14 5 -14 11 0 18 282 5 345 -15z m395 16 c0 -4 -10
-12 -22 -17 -22 -10 -23 -16 -26 -155 -4 -181 7 -238 53 -279 87 -76 213 -36
245 77 11 40 14 292 4 330 -4 12 -17 25 -30 28 -47 12 -23 24 46 24 40 0 70
-4 70 -10 0 -5 -6 -10 -14 -10 -8 0 -22 -7 -30 -16 -13 -13 -16 -44 -16 -180
0 -171 -8 -212 -48 -258 -65 -72 -234 -74 -310 -3 -51 48 -56 70 -60 265 l-4
182 -24 6 c-52 13 -20 24 71 24 52 0 95 -3 95 -8z m700 -1 c0 -5 -9 -11 -20
-14 -11 -3 -20 -13 -20 -23 0 -23 112 -214 124 -211 13 4 116 189 116 210 0
10 -9 21 -20 24 -43 11 -17 23 50 23 73 0 87 -9 45 -28 -15 -7 -57 -60 -105
-134 l-80 -123 0 -97 c0 -99 10 -128 46 -128 8 0 14 -4 14 -10 0 -6 -42 -10
-105 -10 -63 0 -105 4 -105 10 0 6 8 10 18 10 35 0 42 21 42 125 l0 100 -76
123 c-45 74 -86 128 -100 134 -45 21 -24 28 76 28 55 0 100 -4 100 -9z m710
-56 c0 -73 -10 -83 -29 -30 -18 51 -48 66 -141 72 l-80 6 0 -117 0 -116 51 0
c62 0 85 12 103 53 14 31 14 28 15 -58 l0 -90 -17 35 c-17 34 -18 35 -85 38
l-67 3 0 -121 0 -120 58 0 c125 0 165 21 189 97 11 37 11 35 12 -39 l1 -78
-205 0 c-130 0 -205 4 -205 10 0 6 8 10 18 10 39 0 42 16 42 241 0 184 -2 220
-16 233 -8 9 -22 16 -30 16 -8 0 -14 5 -14 10 0 6 73 10 200 10 l200 0 0 -65z
m295 -149 c44 -118 83 -212 87 -208 3 4 38 99 76 212 l69 205 77 3 c77 3 95
-5 54 -23 -21 -9 -23 -18 -26 -95 -1 -47 1 -150 5 -230 8 -137 9 -146 31 -155
42 -18 22 -25 -73 -25 -57 0 -95 4 -95 10 0 6 6 10 14 10 35 0 39 24 31 236
-4 113 -9 203 -12 201 -2 -3 -41 -105 -86 -228 -67 -180 -87 -225 -103 -227
-17 -2 -31 29 -109 233 l-90 236 -3 -212 c-2 -214 1 -239 34 -239 8 0 14 -4
14 -10 0 -6 -30 -10 -70 -10 -40 0 -70 4 -70 10 0 6 7 10 15 10 36 0 43 39 47
260 3 215 3 215 -19 225 -40 17 -25 25 50 25 l72 0 80 -214z m835 149 c0 -73
-10 -83 -29 -30 -18 51 -48 66 -141 72 l-80 6 0 -117 0 -116 51 0 c62 0 85 12
103 53 14 31 14 28 15 -58 l0 -90 -17 35 c-17 34 -18 35 -85 38 l-67 3 0 -121
0 -120 58 0 c125 0 165 21 189 97 11 37 11 35 12 -39 l1 -78 -205 0 c-130 0
-205 4 -205 10 0 6 8 10 18 10 39 0 42 16 42 241 0 184 -2 220 -16 233 -8 9
-22 16 -30 16 -8 0 -14 5 -14 10 0 6 73 10 200 10 l200 0 0 -65z m349 -154
l146 -214 3 169 c4 205 0 232 -33 240 -48 12 -24 24 45 24 40 0 70 -4 70 -10
0 -5 -6 -10 -14 -10 -8 0 -22 -10 -30 -22 -13 -19 -16 -61 -16 -256 l0 -233
-37 3 c-36 3 -40 8 -192 233 l-156 229 -3 -184 c-3 -222 0 -248 33 -256 48
-12 24 -24 -45 -24 -40 0 -70 4 -70 10 0 6 6 10 14 10 8 0 22 10 30 22 24 33
24 429 0 452 -8 9 -22 16 -30 16 -8 0 -14 5 -14 10 0 7 28 10 77 8 l77 -3 145
-214z"/>
<path d="M998 1004 c-12 -12 -10 -232 2 -239 23 -14 112 7 141 34 56 50 45
152 -20 186 -36 18 -113 30 -123 19z"/>
<path d="M2429 987 c-125 -82 -111 -384 21 -452 74 -38 158 -5 200 80 20 41
24 64 25 140 0 80 -3 96 -30 150 -51 101 -138 134 -216 82z"/>
<path d="M2968 1004 c-12 -12 -10 -232 2 -239 23 -14 112 7 141 34 56 50 45
152 -20 186 -36 18 -113 30 -123 19z"/>
<path d="M3620 765 l0 -247 57 7 c107 13 170 63 198 157 19 65 19 101 0 166
-28 94 -91 144 -198 157 l-57 7 0 -247z"/>
</g>
</svg>
